<svg width="42" height="42" viewBox="0 0 42 42" fill="none" xmlns="http://www.w3.org/2000/svg">
<path d="M9.625 27.125C9.625 25.4751 9.625 24.6502 10.1376 24.1376C10.6501 23.625 11.4751 23.625 13.125 23.625H14.875C16.5249 23.625 17.3499 23.625 17.8624 24.1376C18.375 24.6502 18.375 25.4751 18.375 27.125V28.875C18.375 30.5249 18.375 31.3498 17.8624 31.8624C17.3499 32.375 16.5249 32.375 14.875 32.375C12.4001 32.375 11.1627 32.375 10.3938 31.6062C9.625 30.8373 9.625 29.5998 9.625 27.125Z" stroke="#FED169" stroke-width="2.625"/>
<path d="M9.625 14.875C9.625 12.4001 9.625 11.1627 10.3938 10.3938C11.1627 9.625 12.4001 9.625 14.875 9.625C16.5249 9.625 17.3499 9.625 17.8624 10.1376C18.375 10.6501 18.375 11.4751 18.375 13.125V14.875C18.375 16.5249 18.375 17.3499 17.8624 17.8624C17.3499 18.375 16.5249 18.375 14.875 18.375H13.125C11.4751 18.375 10.6501 18.375 10.1376 17.8624C9.625 17.3499 9.625 16.5249 9.625 14.875Z" stroke="#FED169" stroke-width="2.625"/>
<path d="M23.625 27.125C23.625 25.4751 23.625 24.6502 24.1376 24.1376C24.6502 23.625 25.4751 23.625 27.125 23.625H28.875C30.5249 23.625 31.3498 23.625 31.8624 24.1376C32.375 24.6502 32.375 25.4751 32.375 27.125C32.375 29.5998 32.375 30.8373 31.6062 31.6062C30.8373 32.375 29.5998 32.375 27.125 32.375C25.4751 32.375 24.6502 32.375 24.1376 31.8624C23.625 31.3498 23.625 30.5249 23.625 28.875V27.125Z" stroke="#FED169" stroke-width="2.625"/>
<path d="M23.625 13.125C23.625 11.4751 23.625 10.6501 24.1376 10.1376C24.6502 9.625 25.4751 9.625 27.125 9.625C29.5998 9.625 30.8373 9.625 31.6062 10.3938C32.375 11.1627 32.375 12.4001 32.375 14.875C32.375 16.5249 32.375 17.3499 31.8624 17.8624C31.3498 18.375 30.5249 18.375 28.875 18.375H27.125C25.4751 18.375 24.6502 18.375 24.1376 17.8624C23.625 17.3499 23.625 16.5249 23.625 14.875V13.125Z" stroke="#FED169" stroke-width="2.625"/>
<path d="M38.5 24.5C38.5 31.0996 38.5 34.3996 36.4497 36.4497C34.3996 38.5 31.0996 38.5 24.5 38.5" stroke="#FED169" stroke-width="2.625" stroke-linecap="round"/>
<path d="M17.5 38.5C10.9003 38.5 7.60051 38.5 5.55025 36.4497C3.5 34.3996 3.5 31.0996 3.5 24.5" stroke="#FED169" stroke-width="2.625" stroke-linecap="round"/>
<path d="M17.5 3.5C10.9003 3.5 7.60051 3.5 5.55025 5.55025C3.5 7.60051 3.5 10.9003 3.5 17.5" stroke="#FED169" stroke-width="2.625" stroke-linecap="round"/>
<path d="M24.5 3.5C31.0996 3.5 34.3996 3.5 36.4497 5.55025C38.5 7.60051 38.5 10.9003 38.5 17.5" stroke="#FED169" stroke-width="2.625" stroke-linecap="round"/>
</svg>
